<svg width="998" height="213" viewBox="0 0 998 213" fill="none" xmlns="http://www.w3.org/2000/svg">
<g clip-path="url(#clip0)">
<path d="M998 96.3622V78.825H976.205V51.5615L975.471 51.7872L954.999 58.0458L954.596 58.1683V78.826H922.284V67.3179C922.284 61.9593 923.483 57.8586 925.846 55.1239C928.193 52.4219 931.55 51.0483 935.832 51.0483C938.909 51.0483 942.096 51.7727 945.303 53.2013L946.108 53.5602V35.0912L945.729 34.9523C942.737 33.8777 938.668 33.3365 933.624 33.3365C927.266 33.3365 921.49 34.7189 916.453 37.4584C911.412 40.2019 907.447 44.1183 904.67 49.0978C901.902 54.0714 900.497 59.8159 900.497 66.1728V78.825H885.321V96.3622H900.497V170.243H922.284V96.3622H954.596V143.312C954.596 162.648 963.724 172.447 981.726 172.447C984.684 172.447 987.797 172.101 990.976 171.423C994.213 170.726 996.417 170.031 997.714 169.288L998.001 169.118V151.419L997.115 152.004C995.932 152.792 994.46 153.435 992.734 153.913C991 154.401 989.552 154.645 988.43 154.645C984.213 154.645 981.093 153.509 979.157 151.268C977.199 149.007 976.206 145.053 976.206 139.522V96.3622H998ZM836.667 154.648C828.76 154.648 822.525 152.028 818.131 146.867C813.711 141.68 811.471 134.285 811.471 124.889C811.471 115.196 813.711 107.609 818.133 102.33C822.53 97.0866 828.705 94.4252 836.49 94.4252C844.044 94.4252 850.058 96.967 854.366 101.984C858.694 107.027 860.892 114.553 860.892 124.36C860.892 134.287 858.826 141.912 854.752 147.013C850.706 152.076 844.622 154.648 836.667 154.648V154.648ZM837.636 76.6228C822.549 76.6228 810.566 81.0398 802.022 89.7515C793.484 98.4641 789.155 110.521 789.155 125.591C789.155 139.904 793.381 151.417 801.716 159.804C810.052 168.195 821.396 172.445 835.43 172.445C850.054 172.445 861.798 167.966 870.338 159.134C878.878 150.311 883.204 138.368 883.204 123.651C883.204 109.114 879.144 97.5149 871.134 89.1833C863.12 80.8479 851.848 76.6228 837.636 76.6228V76.6228ZM754.028 76.6228C743.766 76.6228 735.277 79.2456 728.792 84.417C722.268 89.6193 718.959 96.4422 718.959 104.699C718.959 108.99 719.673 112.802 721.079 116.036C722.493 119.28 724.682 122.136 727.589 124.533C730.475 126.911 734.93 129.402 740.832 131.936C745.794 133.976 749.495 135.702 751.846 137.062C754.143 138.395 755.774 139.735 756.695 141.04C757.59 142.318 758.044 144.065 758.044 146.222C758.044 152.364 753.441 155.353 743.969 155.353C740.456 155.353 736.448 154.62 732.058 153.175C727.7 151.751 723.586 149.667 719.861 146.995L718.957 146.347V167.306L719.289 167.46C722.371 168.882 726.258 170.081 730.839 171.024C735.411 171.969 739.565 172.449 743.174 172.449C754.31 172.449 763.278 169.814 769.822 164.611C776.407 159.373 779.744 152.389 779.744 143.847C779.744 137.685 777.948 132.401 774.407 128.139C770.889 123.912 764.785 120.031 756.271 116.601C749.488 113.881 745.143 111.623 743.35 109.889C741.622 108.215 740.744 105.846 740.744 102.847C740.744 100.189 741.827 98.059 744.051 96.3342C746.292 94.6007 749.411 93.719 753.323 93.719C756.953 93.719 760.667 94.292 764.36 95.4149C768.051 96.5377 771.293 98.0416 773.999 99.8812L774.889 100.489V80.6077L774.547 80.4611C772.051 79.3913 768.759 78.4758 764.76 77.7331C760.78 76.9951 757.169 76.6228 754.028 76.6228V76.6228ZM662.162 154.648C654.256 154.648 648.019 152.028 643.627 146.867C639.205 141.68 636.969 134.287 636.969 124.889C636.969 115.196 639.208 107.609 643.632 102.33C648.024 97.0866 654.198 94.4252 661.987 94.4252C669.539 94.4252 675.552 96.967 679.861 101.984C684.191 107.027 686.387 114.553 686.387 124.36C686.387 134.287 684.32 141.912 680.246 147.013C676.2 152.076 670.119 154.648 662.162 154.648V154.648ZM663.133 76.6228C648.043 76.6228 636.059 81.0398 627.52 89.7515C618.981 98.4641 614.65 110.521 614.65 125.591C614.65 139.91 618.878 151.417 627.214 159.804C635.549 168.195 646.892 172.445 660.926 172.445C675.548 172.445 687.296 167.966 695.836 159.134C704.373 150.311 708.701 138.368 708.701 123.651C708.701 109.114 704.64 97.5149 696.628 89.1833C688.612 80.8479 677.342 76.6228 663.133 76.6228V76.6228ZM581.578 94.6567V78.825H560.057V170.241H581.578V123.478C581.578 115.527 583.383 108.994 586.943 104.06C590.458 99.1847 595.142 96.7143 600.862 96.7143C602.8 96.7143 604.976 97.0335 607.333 97.6654C609.665 98.2934 611.355 98.9754 612.351 99.6931L613.256 100.348V78.6688L612.907 78.5192C610.903 77.6684 608.067 77.2392 604.48 77.2392C599.072 77.2392 594.232 78.9755 590.086 82.3942C586.448 85.399 583.818 89.519 581.807 94.6567H581.578ZM521.516 76.6228C511.643 76.6228 502.837 78.7382 495.346 82.9083C487.84 87.0881 482.035 93.0554 478.085 100.643C474.153 108.213 472.156 117.055 472.156 126.915C472.156 135.553 474.092 143.479 477.918 150.465C481.746 157.462 487.164 162.937 494.022 166.733C500.871 170.525 508.786 172.448 517.551 172.448C527.778 172.448 536.51 170.405 543.512 166.376L543.794 166.214V146.513L542.89 147.173C539.719 149.481 536.174 151.323 532.361 152.651C528.557 153.977 525.089 154.648 522.048 154.648C513.604 154.648 506.825 152.007 501.904 146.802C496.973 141.59 494.472 134.271 494.472 125.062C494.472 115.795 497.08 108.288 502.219 102.749C507.342 97.2265 514.134 94.4252 522.404 94.4252C529.477 94.4252 536.37 96.8184 542.892 101.545L543.794 102.2V81.4421L543.503 81.2781C541.049 79.9054 537.702 78.772 533.547 77.9125C529.409 77.0549 525.362 76.6228 521.516 76.6228V76.6228ZM457.334 78.826H435.813V170.241H457.334V78.826V78.826ZM446.794 39.8826C443.252 39.8826 440.162 41.0874 437.624 43.4749C435.076 45.8691 433.783 48.8836 433.783 52.4412C433.783 55.9428 435.06 58.9024 437.585 61.2329C440.093 63.5567 443.192 64.7346 446.795 64.7346C450.397 64.7346 453.507 63.5567 456.045 61.2368C458.6 58.9024 459.896 55.9438 459.896 52.4412C459.896 49.0081 458.635 46.0244 456.151 43.5714C453.669 41.1231 450.519 39.8826 446.794 39.8826ZM393.097 72.0812V170.241H415.06V42.681H384.662L346.024 137.429L308.528 42.681H276.892V170.24H297.532V72.0716H298.241L337.835 170.241H353.412L392.389 72.0812H393.097V72.0812Z" fill="url(#paint0_linear)"/>
<path d="M101.242 101.215H0V0.0550537H101.242V101.215Z" fill="url(#paint1_linear)"/>
<path d="M213.024 101.214H111.784V0.0545654H213.024V101.214Z" fill="url(#paint2_linear)"/>
<path d="M101.239 212.945H0V111.787H101.239V212.945Z" fill="url(#paint3_linear)"/>
<path d="M213.024 212.945H111.784V111.787H213.024V212.945Z" fill="url(#paint4_linear)"/>
</g>
<defs>
<linearGradient id="paint0_linear" x1="276.892" y1="33.3365" x2="328.64" y2="301.578" gradientUnits="userSpaceOnUse">
<stop stop-color="#8BA36F"/>
<stop offset="1" stop-color="#368DCA"/>
</linearGradient>
<linearGradient id="paint1_linear" x1="0" y1="0.0550537" x2="101.16" y2="101.297" gradientUnits="userSpaceOnUse">
<stop stop-color="#FDD819"/>
<stop offset="1" stop-color="#E80505"/>
</linearGradient>
<linearGradient id="paint2_linear" x1="111.784" y1="0.0545654" x2="212.944" y2="101.294" gradientUnits="userSpaceOnUse">
<stop stop-color="#F0FF00"/>
<stop offset="1" stop-color="#58CFFB"/>
</linearGradient>
<linearGradient id="paint3_linear" x1="0" y1="111.787" x2="101.159" y2="213.026" gradientUnits="userSpaceOnUse">
<stop stop-color="#72EDF2"/>
<stop offset="1" stop-color="#5151E5"/>
</linearGradient>
<linearGradient id="paint4_linear" x1="111.784" y1="111.787" x2="212.943" y2="213.027" gradientUnits="userSpaceOnUse">
<stop stop-color="#FFA8A8"/>
<stop offset="1" stop-color="#FCFF00"/>
</linearGradient>
<clipPath id="clip0">
<rect width="998" height="213" fill="white"/>
</clipPath>
</defs>
</svg>
