<svg width="120" height="60" viewBox="0 0 120 60" fill="none" xmlns="http://www.w3.org/2000/svg">
<path d="M18.7378 32.8501L12.728 27.2883C11.7508 26.4739 11.5879 25.5944 12.671 24.6172L16.7427 20.7492L21.8567 15.3501L17.8909 10.684L3.88437 24.3078C2.89088 25.285 3.02117 26.7101 4.07166 27.728L15.684 38.7785L18.9251 35.684C20.1466 34.4625 20.1059 34.0228 18.8192 32.8339L18.7378 32.8501Z" fill="url(#paint0_linear)"/>
<path d="M29.0228 27.6059L22.4918 21.5228L19.1938 24.658C18.2003 25.5538 18.2655 26.3274 19.2589 27.2069L25.513 32.9561C26.4576 33.8192 26.5391 34.6254 25.5619 35.5456L19.2427 41.6531L16.0912 44.8942L20.2931 49.2916C20.57 49.145 20.6677 49.1287 20.7329 49.0473L34.0065 36.2378C35.2769 35 35.1466 33.4284 33.7948 32.1173L29.0146 27.5896L29.0228 27.6059Z" fill="url(#paint1_linear)"/>
<path d="M52.1498 21.4984C51.5798 21.5391 51.2296 21.8811 51.2296 22.4593C51.2378 23.0945 51.6368 23.3876 52.2312 23.4365C52.8664 23.3713 53.241 23.013 53.2084 22.4104C53.1759 21.8078 52.7768 21.4577 52.1498 21.4984ZM71.1238 30.1303C71.9381 26.4332 68.6808 23.4283 65.0733 24.43C62.6303 25.1303 61.2459 27.4674 61.5716 30.3746C61.6269 31.2052 61.8899 32.0086 62.3367 32.711C62.7835 33.4134 63.3996 33.9923 64.1285 34.3944C64.8573 34.7965 65.6756 35.0091 66.508 35.0124C67.3404 35.0158 68.1604 34.8099 68.8925 34.4137C70.114 33.8192 70.8143 32.8176 71.0667 31.3355L69.4381 31.3599L69.2752 31.7997C68.6075 33.1433 67.3208 33.6726 65.6922 33.241C64.3078 32.8746 63.469 31.6124 63.5423 30.114H71.197L71.1238 30.1303ZM66.026 25.8143C67.8176 25.684 69.0228 26.6531 69.3241 28.5668H63.5016C63.5342 27.0766 64.601 25.9202 65.9446 25.8143H66.026Z" fill="url(#paint2_linear)"/>
<path d="M58.1921 21.5146H56.3843V24.4951H54.5684V26.0098H56.3192V26.987L56.3436 32.8746C56.3599 33.9006 56.7508 34.4462 57.5977 34.5684C58.4446 34.6905 59.2833 34.6661 60.1384 34.6987V33.07C59.7882 33.07 59.4869 33.0456 59.1938 33.0782C58.4201 33.1433 58.07 32.8339 58.1107 32.0358L58.1188 29.3811V25.9365H60.1547V24.5114H58.1188V21.5472L58.1921 21.5146ZM51.4087 34.6091H53.0374V24.5358H51.4087V34.6091ZM49.3729 31.5309C49.3627 31.0397 49.1995 30.5639 48.9062 30.1698C48.6128 29.7757 48.2038 29.4829 47.7361 29.3322C46.9381 29.0228 46.0912 28.8762 45.2687 28.6238C44.4462 28.3713 43.754 28.2329 43.0863 27.8094C42.2882 27.386 42.3371 26.4251 43.1677 26.0423C44.4136 25.4723 46.653 25.4316 47.2394 27.386H48.9006C48.868 26.3111 48.4934 25.456 47.6384 24.943C46.7185 24.4631 45.6914 24.2254 44.6542 24.2525C43.6169 24.2796 42.6037 24.5705 41.71 25.0977C40.2035 26.2378 40.3013 28.412 41.9543 29.316C42.5488 29.6417 43.241 29.8046 43.9087 30L46.5472 30.7166C47.1172 30.9039 47.5651 31.2866 47.5081 32.0032C47.4511 32.7199 46.9543 33.0863 46.3355 33.2085C45.1628 33.4365 44.9348 33.3958 43.7133 33.184C43.0293 33.0619 42.5488 32.614 42.3127 31.9137L42.2068 31.4658L40.5781 31.4576C40.6026 32.7117 41.026 33.6971 42.0684 34.2264C43.982 35.1791 46.3029 35.1629 48.1921 34.1449C49.1856 33.6075 49.5439 32.6547 49.4951 31.5391L49.3729 31.5309ZM116.963 26.0586V24.5765H114.886V21.6124H113.07V24.5928H111.401V26.1075H113.086V27.1498L113.168 33.1189C113.184 33.9332 113.575 34.5358 114.389 34.6498C115.204 34.7638 116.075 34.7475 116.938 34.7801V33.2085C116.498 33.2085 116.124 33.2003 115.733 33.2085C115.195 33.2166 114.894 32.9642 114.894 32.4186V26.0586H116.954H116.963Z" fill="url(#paint3_linear)"/>
<path d="M89.8127 24.2671C86.8403 24.0472 84.6824 25.9935 84.4381 29.1042C84.1938 32.4023 86.0342 34.658 89.1856 34.9023C89.8649 34.9952 90.5562 34.9417 91.2131 34.7454C91.8699 34.549 92.4772 34.2144 92.994 33.7639C93.5108 33.3134 93.9253 32.7575 94.2095 32.1336C94.4936 31.5097 94.641 30.8322 94.6416 30.1466C94.9022 26.7427 93.0618 24.5032 89.8045 24.2671H89.8127ZM88.9576 33.2247C87.1661 32.9234 86.1563 31.2459 86.3517 28.8518C86.5146 27.0277 87.8013 25.7329 89.4869 25.7166C91.4658 25.7003 92.7442 27.1824 92.7442 29.5114C92.7361 32.0195 91.14 33.583 88.9576 33.2247ZM97.6954 21.4169C97.0846 21.3844 96.6775 21.6775 96.6368 22.2313C96.596 22.785 96.9788 23.1759 97.5977 23.2736C98.1677 23.2247 98.5993 22.9153 98.6156 22.3127C98.6271 22.187 98.6119 22.0603 98.571 21.9409C98.5302 21.8215 98.4645 21.7121 98.3784 21.6198C98.2923 21.5276 98.1877 21.4545 98.0714 21.4055C97.9551 21.3565 97.8297 21.3327 97.7035 21.3355L97.6954 21.4169ZM80.6107 24.8371C78.8843 23.8599 76.5065 24.0228 74.7475 25.4886V24.5521H73.0781V38.5179H74.8045V33.526C75.5013 34.177 76.3656 34.6208 77.3006 34.8078C78.2356 34.9948 79.2042 34.9175 80.0977 34.5847C81.9462 34.0146 82.7035 32.4023 82.9804 30.5619C83.3306 28.1759 82.3697 25.855 80.5374 24.8615L80.6107 24.8371ZM81.1482 29.6905C81.1104 30.2405 81.0093 30.7843 80.8469 31.3111C80.4397 32.614 79.4951 33.3143 78.1596 33.3713C76.7752 33.4283 75.684 32.8013 75.171 31.5798C74.8854 30.9477 74.7377 30.262 74.7377 29.5684C74.7377 28.8748 74.8854 28.1891 75.171 27.557C75.684 26.3762 76.6123 25.7899 77.9071 25.798C79.9022 25.798 81.2947 27.4593 81.14 29.6743L81.1482 29.6905ZM109.764 27.0847C109.699 25.456 108.607 24.4951 106.995 24.2997C105.383 24.1042 103.901 24.4381 102.777 25.8958V24.544H101.173V34.6091H102.915V33.5668L102.964 28.4202C103.078 26.4251 104.756 25.456 106.726 25.9772C107.419 26.1401 107.883 26.6449 107.98 27.3778C108.062 27.9234 108.078 28.4772 108.078 29.0309L108.086 34.6987H109.715L109.691 27.1498L109.764 27.0847Z" fill="url(#paint4_linear)"/>
<path d="M96.7834 34.6091H98.4447V24.5521H96.7834V34.6091Z" fill="url(#paint5_linear)"/>
<defs>
<linearGradient id="paint0_linear" x1="3.20691" y1="10.684" x2="29.0975" y2="27.8708" gradientUnits="userSpaceOnUse">
<stop stop-color="#FF9D6C"/>
<stop offset="1" stop-color="#BB4E75"/>
</linearGradient>
<linearGradient id="paint1_linear" x1="16.0912" y1="21.5228" x2="41.8721" y2="38.9742" gradientUnits="userSpaceOnUse">
<stop stop-color="#3C8CE7"/>
<stop offset="1" stop-color="#00EAFF"/>
</linearGradient>
<linearGradient id="paint2_linear" x1="51.2296" y1="21.4952" x2="63.7673" y2="40.0646" gradientUnits="userSpaceOnUse">
<stop stop-color="#FD6585"/>
<stop offset="1" stop-color="#0D25B9"/>
</linearGradient>
<linearGradient id="paint3_linear" x1="40.5781" y1="21.5146" x2="45.1462" y2="47.5336" gradientUnits="userSpaceOnUse">
<stop stop-color="#FD6585"/>
<stop offset="1" stop-color="#0D25B9"/>
</linearGradient>
<linearGradient id="paint4_linear" x1="73.0781" y1="21.3353" x2="86.2782" y2="49.518" gradientUnits="userSpaceOnUse">
<stop stop-color="#FD6585"/>
<stop offset="1" stop-color="#0D25B9"/>
</linearGradient>
<linearGradient id="paint5_linear" x1="96.7834" y1="24.5521" x2="100.018" y2="25.0864" gradientUnits="userSpaceOnUse">
<stop stop-color="#FD6585"/>
<stop offset="1" stop-color="#0D25B9"/>
</linearGradient>
</defs>
</svg>
