<svg width="218" height="410" viewBox="0 0 218 410" fill="none" xmlns="http://www.w3.org/2000/svg">
<path d="M218 106.729H215.598V39.1274C215.598 28.7501 211.585 18.7979 204.442 11.4601C197.299 4.12234 187.612 5.13777e-06 177.51 0H38.0879C27.9863 0 18.2985 4.12233 11.1557 11.4601C4.01282 18.7979 0 28.7501 0 39.1274V410C9.10129 410 14.5992 410 24.5954 410C34.5916 410 50 410 61 410H166.542C176.643 410 183.035 410 195.031 410C207.026 410 202.528 410 215.597 410V154.849H217.999L218 106.729Z" fill="#E7E7E7"/>
<path d="M178.554 10.1233H160.354C161.191 12.233 161.511 14.5219 161.284 16.7885C161.058 19.055 160.293 21.2296 159.057 23.1206C157.821 25.0116 156.151 26.561 154.195 27.6322C152.239 28.7035 150.056 29.2638 147.84 29.2637H67.9589C65.7426 29.2636 63.5604 28.7032 61.6045 27.6318C59.6486 26.5605 57.979 25.0111 56.7428 23.1201C55.5065 21.2291 54.7417 19.0546 54.5155 16.7882C54.2893 14.5217 54.6088 12.2329 55.4458 10.1233H38.4464C30.9019 10.1233 23.6665 13.2043 18.3318 18.6885C12.997 24.1727 10 31.6109 10 39.3668V410C18.0891 410 18.589 410 27.0866 410C35.5842 410 37.0372 410 44.5817 410H108.5H155C162.544 410 186.46 410 193.5 410C200.54 410 201.038 410 207 410V39.3662C207 31.6105 204.003 24.1724 198.668 18.6883C193.333 13.2042 186.098 10.1233 178.554 10.1233Z" fill="white"/>
<path d="M108.936 226.541C95.877 226.541 83.1116 222.612 72.2537 215.249C61.3958 207.886 52.9332 197.422 47.9358 185.178C42.9385 172.934 41.631 159.462 44.1786 146.464C46.7262 133.466 53.0146 121.527 62.2484 112.156C71.4823 102.786 83.2469 96.4039 96.0546 93.8185C108.862 91.2331 122.138 92.56 134.203 97.6315C146.267 102.703 156.579 111.291 163.834 122.31C171.089 133.329 174.961 146.284 174.961 159.536C174.941 177.301 167.979 194.332 155.601 206.894C143.223 219.455 126.441 226.521 108.936 226.541V226.541ZM108.936 93.8073C96.1257 93.8073 83.6035 97.6623 72.9524 104.885C62.3014 112.107 53.9999 122.373 49.0978 134.383C44.1956 146.393 42.913 159.609 45.4121 172.359C47.9112 185.11 54.0797 196.821 63.1377 206.014C72.1957 215.206 83.7362 221.466 96.3 224.002C108.864 226.538 121.886 225.237 133.721 220.262C145.556 215.287 155.671 206.862 162.788 196.053C169.905 185.244 173.704 172.536 173.704 159.536C173.684 142.11 166.854 125.403 154.712 113.081C142.57 100.758 126.107 93.827 108.936 93.8073V93.8073Z" fill="#3F3D56"/>
<path d="M133.186 140.072C138.841 135.222 142.276 127.562 141.375 120.105C140.474 112.648 134.895 105.793 127.658 104.209C120.422 102.626 112.172 107.009 109.974 114.183C108.764 100.352 107.37 85.9409 100.124 74.1621C93.563 63.4967 82.1988 55.8652 69.8826 54.4999C57.5663 53.1346 44.599 58.2912 36.9178 68.1564C29.2366 78.0217 27.3559 92.3637 32.7356 103.69C36.6986 112.033 43.9999 118.243 51.6499 123.294C76.0559 139.411 106.331 144.856 135.139 140.554L133.186 140.072Z" fill="#CFDEF3"/>
<path d="M49.0967 58.5769C59.2592 66.9772 68.5821 76.3722 76.9307 86.6261C89.9963 102.618 100.569 120.549 108.281 139.792C108.845 141.196 106.599 141.807 106.041 140.419C93.4231 109.144 73.2801 81.5787 47.4541 60.2439C46.2944 59.2855 47.9466 57.6265 49.0967 58.5769V58.5769Z" fill="white"/>
<path d="M52.5554 292.27C56.3755 292.27 59.4724 289.128 59.4724 285.251C59.4724 281.374 56.3755 278.231 52.5554 278.231C48.7353 278.231 45.6384 281.374 45.6384 285.251C45.6384 289.128 48.7353 292.27 52.5554 292.27Z" fill="#17275F"/>
<path d="M167.203 290.356H79.1692C77.835 290.356 76.5555 289.818 75.6121 288.861C74.6687 287.903 74.1387 286.605 74.1387 285.251C74.1387 283.897 74.6687 282.598 75.6121 281.641C76.5555 280.683 77.835 280.146 79.1692 280.146H167.203C168.537 280.146 169.817 280.683 170.76 281.641C171.704 282.598 172.234 283.897 172.234 285.251C172.234 286.605 171.704 287.903 170.76 288.861C169.817 289.818 168.537 290.356 167.203 290.356Z" fill="#DAE9FF"/>
<path d="M139.9 290.417H78.8058C77.4555 290.417 76.1606 289.873 75.2058 288.904C74.251 287.935 73.7146 286.621 73.7146 285.251C73.7146 283.88 74.251 282.566 75.2058 281.597C76.1606 280.628 77.4555 280.084 78.8058 280.084H139.9C141.25 280.084 142.545 280.628 143.5 281.597C144.455 282.566 144.991 283.88 144.991 285.251C144.991 286.621 144.455 287.935 143.5 288.904C142.545 289.873 141.25 290.417 139.9 290.417Z" fill="#5784F5"/>
<path d="M52.5554 322.901C56.3755 322.901 59.4724 319.758 59.4724 315.882C59.4724 312.005 56.3755 308.862 52.5554 308.862C48.7353 308.862 45.6384 312.005 45.6384 315.882C45.6384 319.758 48.7353 322.901 52.5554 322.901Z" fill="#17275F"/>
<path d="M167.203 320.987H79.1692C77.835 320.987 76.5555 320.449 75.6121 319.491C74.6687 318.534 74.1387 317.236 74.1387 315.882C74.1387 314.528 74.6687 313.229 75.6121 312.272C76.5555 311.314 77.835 310.776 79.1692 310.776H167.203C168.537 310.776 169.817 311.314 170.76 312.272C171.704 313.229 172.234 314.528 172.234 315.882C172.234 317.236 171.704 318.534 170.76 319.491C169.817 320.449 168.537 320.987 167.203 320.987Z" fill="#DAE9FF"/>
<path d="M52.5554 353.532C56.3755 353.532 59.4724 350.39 59.4724 346.513C59.4724 342.636 56.3755 339.493 52.5554 339.493C48.7353 339.493 45.6384 342.636 45.6384 346.513C45.6384 350.39 48.7353 353.532 52.5554 353.532Z" fill="#17275F"/>
<path d="M167.203 351.618H79.1692C77.835 351.618 76.5555 351.08 75.6121 350.123C74.6687 349.165 74.1387 347.867 74.1387 346.513C74.1387 345.159 74.6687 343.86 75.6121 342.903C76.5555 341.945 77.835 341.407 79.1692 341.407H167.203C168.537 341.407 169.817 341.945 170.76 342.903C171.704 343.86 172.234 345.159 172.234 346.513C172.234 347.867 171.704 349.165 170.76 350.123C169.817 351.08 168.537 351.618 167.203 351.618Z" fill="#DAE9FF"/>
<path d="M119.778 321.048H78.8058C77.4555 321.048 76.1606 320.504 75.2058 319.535C74.251 318.566 73.7146 317.252 73.7146 315.882C73.7146 314.511 74.251 313.197 75.2058 312.228C76.1606 311.259 77.4555 310.715 78.8058 310.715H119.778C121.128 310.715 122.423 311.259 123.378 312.228C124.333 313.197 124.869 314.511 124.869 315.882C124.869 317.252 124.333 318.566 123.378 319.535C122.423 320.504 121.128 321.048 119.778 321.048V321.048Z" fill="#5784F5"/>
<path d="M156.249 351.679H78.8058C77.4555 351.679 76.1606 351.135 75.2058 350.166C74.251 349.197 73.7146 347.883 73.7146 346.512C73.7146 345.142 74.251 343.828 75.2058 342.859C76.1606 341.89 77.4555 341.346 78.8058 341.346H156.249C157.599 341.346 158.894 341.89 159.849 342.859C160.804 343.828 161.34 345.142 161.34 346.512C161.34 347.883 160.804 349.197 159.849 350.166C158.894 351.135 157.599 351.679 156.249 351.679V351.679Z" fill="#5784F5"/>
<path d="M143.893 149.117H135.251V123.2C135.252 122.438 135.55 121.708 136.081 121.17C136.611 120.632 137.33 120.329 138.081 120.328H141.064C141.814 120.329 142.533 120.632 143.064 121.17C143.594 121.708 143.893 122.438 143.893 123.2V149.117Z" fill="#3F3D56"/>
<path d="M149.133 193.222H66.5196L66.223 145.969C66.2198 145.239 66.3612 144.516 66.6387 143.843C66.9162 143.169 67.3241 142.559 67.8383 142.049L88.5915 121.535C89.5761 120.558 90.8953 120.007 92.272 119.997L127.006 119.674C127.794 119.669 128.573 119.84 129.288 120.174C130.004 120.508 130.638 120.998 131.147 121.608L131.15 121.612L147.648 142.144C148.607 143.341 149.132 144.836 149.133 146.379L149.133 193.222Z" fill="#161B3D"/>
<path d="M149.134 193.222H104.738V150.874C104.738 149.583 105.191 148.336 106.016 147.354L125.306 124.403V124.403C125.807 123.806 126.43 123.326 127.132 122.997C127.835 122.668 128.599 122.498 129.372 122.499H129.392C130.169 122.501 130.936 122.676 131.639 123.01C132.343 123.344 132.966 123.83 133.465 124.434L147.882 141.852C148.69 142.829 149.133 144.065 149.134 145.341V193.222Z" fill="#7398F6"/>
<path d="M130.301 176.956H123.878C123.461 176.956 123.062 176.788 122.767 176.489C122.472 176.189 122.306 175.784 122.306 175.361V169.896C122.306 169.473 122.472 169.067 122.767 168.768C123.062 168.469 123.461 168.301 123.878 168.3H130.301C130.718 168.301 131.118 168.469 131.412 168.768C131.707 169.067 131.873 169.473 131.873 169.896V175.361C131.873 175.784 131.707 176.189 131.412 176.489C131.118 176.788 130.718 176.956 130.301 176.956V176.956Z" fill="white"/>
<path d="M130.301 162.951H123.878C123.461 162.951 123.062 162.783 122.767 162.484C122.472 162.184 122.306 161.779 122.306 161.356V156.018C122.306 155.595 122.472 155.189 122.767 154.89C123.062 154.591 123.461 154.423 123.878 154.422H130.301C130.718 154.423 131.118 154.591 131.412 154.89C131.707 155.189 131.873 155.595 131.873 156.018V161.356C131.873 161.779 131.707 162.184 131.412 162.484C131.118 162.783 130.718 162.951 130.301 162.951V162.951Z" fill="white"/>
<path d="M90.5782 174.828H84.1551C83.7383 174.828 83.3387 174.66 83.044 174.361C82.7493 174.061 82.5835 173.656 82.583 173.233V167.768C82.5835 167.345 82.7493 166.94 83.044 166.64C83.3387 166.341 83.7383 166.173 84.1551 166.173H90.5782C90.9949 166.173 91.3945 166.341 91.6892 166.64C91.9839 166.94 92.1497 167.345 92.1502 167.768V173.233C92.1497 173.656 91.9839 174.061 91.6892 174.361C91.3945 174.66 90.9949 174.828 90.5782 174.828Z" fill="white"/>
<path d="M90.5782 160.824H84.1551C83.7383 160.823 83.3387 160.655 83.044 160.356C82.7493 160.057 82.5835 159.651 82.583 159.228V153.89C82.5835 153.467 82.7493 153.062 83.044 152.763C83.3387 152.464 83.7383 152.295 84.1551 152.295H90.5782C90.9949 152.295 91.3945 152.464 91.6892 152.763C91.9839 153.062 92.1497 153.467 92.1502 153.89V159.228C92.1497 159.651 91.9839 160.057 91.6892 160.356C91.3945 160.655 90.9949 160.823 90.5782 160.824Z" fill="white"/>
<path d="M165.121 193.774H52.7494C52.5826 193.774 52.4227 193.707 52.3048 193.587C52.1868 193.467 52.1206 193.305 52.1206 193.136C52.1206 192.967 52.1868 192.804 52.3048 192.685C52.4227 192.565 52.5826 192.498 52.7494 192.498H165.121C165.288 192.498 165.448 192.565 165.566 192.685C165.684 192.804 165.75 192.967 165.75 193.136C165.75 193.305 165.684 193.467 165.566 193.587C165.448 193.707 165.288 193.774 165.121 193.774Z" fill="#3F3D56"/>
</svg>
